# xmcd CD database file
# Copyright (C) 1997 Ti Kan
#
# Track frame offsets:
#  150
#  12420
#  26660
#  43840
#  59275
#  82077
#  97000
#  110587
#  125930
#  152350
#
# Disc length: 2225 seconds
#
# Revision: 1
# Processed by: cddbd v1.4b41PL1 Copyright (c) Steve Scherf et al.
# Submitted via: CDWizzard Release:4.23
#
DISCID=8608af0a
DTITLE=Sandi Patti - Love Overflowing
DYEAR=1900
DGENRE=
TTITLE0=Down In My Heart
TTITLE1=Keeper Of The Well
TTITLE2=Love Overflowing
TTITLE3=So Far
TTITLE4=When The Time Comes
TTITLE5=The Home Of The Lord
TTITLE6=Sombody Believed
TTITLE7=In His Hand
TTITLE8=We Shall Behold Him
TTITLE9=I Will Praise Him
EXTD=
EXTT0=
EXTT1=
EXTT2=
EXTT3=
EXTT4=
EXTT5=
EXTT6=
EXTT7=
EXTT8=
EXTT9=
PLAYORDER=
